PathFileType	3	(X/Y/Z)	D:\Jess\Healthy\Labelled\HA13\20250417\SRRun01.trc
DataRate	CameraRate	NumFrames	NumMarkers	Units	OrigDataRate	OrigDataStartFrame	OrigNumFrames
250.0	250.0	5	37	mm	250.0	36875	2501
Frame#	Time	C7			T10			CLAV			LSHO			RSHO			LASIS			RASIS			LPSIS			RPSIS			LILCR			RILCR			LGTR			LTHI			LLTHI			LLEP			LMEP			LPSH			LLSH			LDSH			LLMAL			LMMAL			LTOE			L5TH			LHEE			RGTR			RTHI			RLTHI			RLEP			RMEP			RPSH			RLSH			RDSH			RLMAL			RMMAL			RTOE			R5TH			RHEE			
		X1	Y1	Z1	X2	Y2	Z2	X3	Y3	Z3	X4	Y4	Z4	X5	Y5	Z5	X6	Y6	Z6	X7	Y7	Z7	X8	Y8	Z8	X9	Y9	Z9	X10	Y10	Z10	X11	Y11	Z11	X12	Y12	Z12	X13	Y13	Z13	X14	Y14	Z14	X15	Y15	Z15	X16	Y16	Z16	X17	Y17	Z17	X18	Y18	Z18	X19	Y19	Z19	X20	Y20	Z20	X21	Y21	Z21	X22	Y22	Z22	X23	Y23	Z23	X24	Y24	Z24	X25	Y25	Z25	X26	Y26	Z26	X27	Y27	Z27	X28	Y28	Z28	X29	Y29	Z29	X30	Y30	Z30	X31	Y31	Z31	X32	Y32	Z32	X33	Y33	Z33	X34	Y34	Z34	X35	Y35	Z35	X36	Y36	Z36	X37	Y37	Z37	

1876	147.496	929.3897942539023	1594.576369415264	-289.3059358741959	842.8922177758959	1339.473845036397	-298.6446439350004	1090.125285548354	1477.76668878432	-303.948981697601	987.505256582398	1577.554179623025	-451.8372922162377	1001.584479155779	1574.618992427147	-148.201015611479	1022.718939548814	1054.425187621455	-403.957272812858	1003.119335293426	1049.702627153473	-191.8133196466922	831.8456430148846	1094.991284801847	-332.4883125437978	830.1308108638443	1090.100731305027	-289.5837551650941	962.0349836969017	1120.721642475848	-468.1264247050796	952.3469128795637	1111.23625796839	-143.5772464190027	1018.632049966063	911.0464437259559	-480.2538747595963	1132.659062381834	856.3486512273463	-414.3484640120756	1098.187679922748	732.3498079474554	-461.6493028369298	1151.199976605903	622.1411716554442	-442.2716665296177	nan	nan	nan	1163.202073694204	497.7240912922516	-402.1323649432002	1015.212838520414	446.2682907601882	-446.8932811628049	1007.336142959689	323.1629017794355	-400.6154595535878	908.5689723373919	274.9821543049179	-421.9532792517414	nan	nan	nan	994.9088715107046	139.9581130124477	-432.5263460348626	942.0860177901759	137.735490320405	-463.3902862536676	831.6624218503392	268.1072454038339	-354.9439899222215	923.7347088890414	880.8322171295048	-132.3757579071598	979.3778725060586	755.9897420791159	-224.2465464545018	839.186901625457	685.2490188463715	-161.9256305302931	800.6655603632423	533.2501622888891	-182.9463747432529	nan	nan	nan	817.4689879656435	432.5672934774414	-238.3567137079989	698.2758267322878	365.3007764037632	-189.5891685604014	681.8873399961016	218.1731622467788	-263.9624203748028	601.6757086736078	168.3569605003602	-238.2348004567679	nan	nan	nan	717.3892588113386	55.44055183234821	-251.2199604916174	658.0333767860069	53.12484427049659	-216.4982775161747	521.960821931318	159.4818393338409	-290.8535301725801	
1877	147.5	929.4827232446981	1597.192019218091	-289.348049817292	843.518792394428	1341.829967037674	-297.6103989292646	1090.047275419396	1481.075990405684	-304.8929796406624	986.6779770149916	1580.306036185527	-451.9644072646215	1001.931629385204	1577.783887987553	-148.8117207237428	1023.379528664011	1057.506454197747	-404.1532645287231	1004.133061794601	1051.606514129217	-192.3024005050479	832.7215296423192	1098.286135469416	-332.2658285101749	831.2057832960428	1093.345550583788	-289.4470586600195	962.3949818733977	1124.326220172064	-468.1393357066719	955.2583779788988	1113.716707257903	-144.1023915905848	1019.508429669073	915.1858432125915	-480.4786029575019	1133.487548630485	860.4318572954505	-414.4501673726459	1098.86675835695	735.7027058484052	-461.5464894114931	1151.006274394833	624.5616585118322	-442.1516344330601	nan	nan	nan	1166.052734209941	499.7999330278849	-401.9839900039802	1019.990649443106	442.7547760839665	-446.4165177044337	1016.640547750099	319.7125907601211	-399.4579718419583	919.6624617411862	267.8387237246379	-420.523161325069	nan	nan	nan	1011.092842694843	136.2812829119466	-430.587907250793	958.4014494230905	131.8556494480777	-461.4158165480584	843.1453771691671	258.3160462789428	-353.3274197642785	923.0040288300788	883.0976139138514	-132.9396233719089	976.732939580683	758.1854706812095	-225.9395092672941	835.4351348874551	688.8206874644895	-161.7955735921053	793.9912207425625	537.6918967499303	-182.7851527277399	nan	nan	nan	810.437458031137	436.6160982799579	-237.6524166023214	690.4781500000104	370.2744776424985	-189.4191479618863	674.6778413238779	222.2266302636887	-262.9606093948873	593.954119962259	172.7490032410267	-237.6602258241907	nan	nan	nan	706.5914700548386	55.39961313364731	-250.9715617514113	647.0190637796029	54.77566902292983	-216.5888089496117	514.945221961479	166.149880268998	-290.560714116248	
1878	147.504	929.5770248069807	1599.741440687032	-289.400671453121	844.1506022560573	1344.14468097204	-296.6160557370902	1089.961708528655	1484.370856391462	-305.7841752604334	985.8916650507505	1583.00641020414	-452.0694067801757	1002.23373820194	1580.871928778467	-149.4133724647667	1024.07939529281	1060.52427283322	-404.384962829351	1005.145584854056	1053.537594504689	-192.823227199248	833.6324771498291	1101.591208654665	-332.1252058365064	832.3094818250199	1096.613964849879	-289.3885879762659	962.8618947437652	1127.999735220533	-468.1521833063516	958.108124750554	1116.22392048285	-144.6721152050279	1020.334742406733	919.176345155255	-480.68864679757	1134.319932487542	864.3670118449721	-414.5392213085578	1099.353809790651	738.8515060567095	-461.4055456759646	1150.522150244238	626.6969531757852	-442.0338091862554	nan	nan	nan	1168.609154649692	501.6797325835848	-401.8841062045125	1024.745007667029	439.0750913080781	-445.9898030126537	1025.937297533582	316.2650476782091	-398.3266070082528	930.9234125778798	260.7331128123427	-419.1249589113899	nan	nan	nan	1027.337369565129	132.8457203440408	-428.5890607374758	974.8758320100579	126.201212531583	-459.3883448653675	854.8841781523182	248.5822227532337	-351.7528469529606	922.3672340960206	885.4367121124631	-133.4471323820636	974.298718801939	760.4190108282824	-227.4264103136432	831.934058337562	692.3997376239635	-161.5754852425023	787.6699143505399	542.1452341560027	-182.5458945623191	nan	nan	nan	803.8145076477909	440.6592265513657	-236.8068282620267	683.0414846184713	375.2731827324491	-189.1671389176269	667.8104376615011	226.2816313598168	-261.8397447595681	586.5605417883482	177.1914531040821	-236.9991970106505	nan	nan	nan	695.9039951711151	55.48259003423987	-250.6556645269113	636.1426818335336	56.57103257242147	-216.6541146164778	508.3585119369386	172.9745912041498	-290.2129583721596	
1879	147.508	929.6737671442737	1602.212903258487	-289.4611886751202	844.7832995488409	1346.409421902718	-295.6697004296603	1089.870238567792	1487.63613873531	-306.6207747136434	985.1474364694725	1585.644697410738	-452.1516211205188	1002.492590555696	1583.870794766838	-150.0047918805642	1024.815468796557	1063.464518404656	-404.6516104978892	1006.150685408927	1055.491102019686	-193.3691212199504	834.5714347030989	1104.890907772945	-332.0668047080042	833.433986503872	1099.888960390168	-289.4074871280391	963.439866117346	1131.71587409144	-468.1645334349986	960.8576756385827	1118.751934776895	-145.2798298761949	1021.102270676965	922.9863424062593	-480.883294086451	1135.148743025921	868.1247536310923	-414.6240261036413	1099.63230664273	741.7785664594413	-461.2230813738265	1149.751107876765	628.5410135105114	-441.9217532769566	nan	nan	nan	1170.874607768009	503.3597378787013	-401.8262676990657	1029.485806556187	435.2444633829726	-445.6211651508409	1035.216070373249	312.8391552774749	-397.2262580830142	942.3423117491104	253.6977309989823	-417.7694222655696	nan	nan	nan	1043.612181814783	129.6693770008167	-426.5293136966997	991.4822095498911	120.80021636341	-457.3100093387544	866.8603389875125	238.9488020107603	-350.239104884966	921.813502087824	887.8338806488805	-133.8948501790795	972.0772928224127	762.6415618432839	-228.652379802617	828.6711137548799	695.9594217983791	-161.2823223093557	781.7202127964338	546.5684111235445	-182.2409015287408	nan	nan	nan	797.608435215703	444.6563484680005	-235.8422765166652	675.9824916042305	380.2578453340171	-188.8395101286831	661.2691556396576	230.3132476622765	-260.6157215631145	579.4794984247714	181.6701320583473	-236.2570526587688	nan	nan	nan	685.3234715204096	55.71553898252072	-250.2723719714858	625.4030072571977	58.52321045492502	-216.6953290795733	502.1834129395	179.9265589359335	-289.8090368506672	
1880	147.512	929.7738885139798	1604.595693008011	-289.5270656196917	845.4125901368451	1348.616355191322	-294.7791674214439	1089.774656314392	1490.856932921399	-307.4020552892069	984.4460337080566	1588.210816063289	-452.2109448641449	1002.710077430349	1586.768651016619	-150.5848671028839	1025.584135863363	1066.31251902906	-404.9508099709506	1007.14267712352	1057.460875943628	-193.9332130790492	835.5311512228369	1108.169173918548	-332.0893076507982	834.5711546632914	1103.152957388927	-289.50125124547	964.1303921290843	1135.444299262377	-468.1760946073052	963.4722665922336	1121.29430406245	-145.918330612854	1021.803886450133	926.5850656619099	-481.061513861936	1135.963554356124	871.6704454878363	-414.714449572345	1099.683964537406	744.4654681936883	-460.9974372958211	1148.697871798423	630.0893200072685	-441.8195542076892	nan	nan	nan	1172.853892728857	504.8383605859931	-401.8020022445085	1034.221270616145	431.2819150865743	-445.3166869999342	1044.464135502085	309.4554903610189	-396.1603997966251	953.9051974486378	246.7671334955344	-416.4660639407165	nan	nan	nan	1059.883018828783	126.7690541906299	-424.408406385069	1008.188550596088	115.6803298086232	-455.1831898399027	879.0492137399174	229.4610441045767	-348.8042646652774	921.3304652292999	890.2731984693544	-134.2806374017808	970.069030739934	764.8102226136466	-229.5717574845725	825.6350450581402	699.4734696614298	-160.9340314451624	776.1616224864665	550.9203426127041	-181.8833174088276	nan	nan	nan	791.8243094588096	448.5686182399895	-234.7842419012819	669.3161919438664	385.1910788568021	-188.4432864279757	655.0340057851471	234.300491287105	-259.3069054315281	572.6917190016695	186.1741580331929	-235.4408556569366	nan	nan	nan	674.8472146556271	56.12487892653206	-249.822198532614	614.7988590382382	60.64483569932568	-216.7130304057062	496.3960991798548	186.9770267001758	-289.3490131020791	
